# Generated low-poly model
# 416 vertices, 792 faces
v 0.000000 0.750000 0.000000
v 0.309017 0.713292 0.000000
v 0.285494 0.713292 0.118256
v 0.218508 0.713292 0.218508
v 0.118256 0.713292 0.285494
v -0.000000 0.713292 0.309017
v -0.118256 0.713292 0.285495
v -0.218508 0.713292 0.218508
v -0.285494 0.713292 0.118256
v -0.309017 0.713292 -0.000000
v -0.285494 0.713292 -0.118256
v -0.218508 0.713292 -0.218508
v -0.118256 0.713292 -0.285494
v 0.000000 0.713292 -0.309017
v 0.118256 0.713292 -0.285494
v 0.218508 0.713292 -0.218508
v 0.285495 0.713292 -0.118256
v 0.587785 0.606763 0.000000
v 0.543043 0.606763 0.224936
v 0.415627 0.606763 0.415627
v 0.224936 0.606763 0.543043
v -0.000000 0.606763 0.587785
v -0.224936 0.606763 0.543043
v -0.415627 0.606763 0.415627
v -0.543043 0.606763 0.224936
v -0.587785 0.606763 -0.000000
v -0.543043 0.606763 -0.224936
v -0.415627 0.606763 -0.415627
v -0.224936 0.606763 -0.543043
v 0.000000 0.606763 -0.587785
v 0.224936 0.606763 -0.543043
v 0.415627 0.606763 -0.415627
v 0.543043 0.606763 -0.224936
v 0.809017 0.440839 0.000000
v 0.747434 0.440839 0.309597
v 0.572061 0.440839 0.572061
v 0.309597 0.440839 0.747434
v -0.000000 0.440839 0.809017
v -0.309597 0.440839 0.747434
v -0.572061 0.440839 0.572061
v -0.747434 0.440839 0.309597
v -0.809017 0.440839 -0.000000
v -0.747434 0.440839 -0.309597
v -0.572061 0.440839 -0.572061
v -0.309598 0.440839 -0.747434
v 0.000000 0.440839 -0.809017
v 0.309598 0.440839 -0.747434
v 0.572061 0.440839 -0.572061
v 0.747434 0.440839 -0.309597
v 0.951057 0.231763 0.000000
v 0.878662 0.231763 0.363954
v 0.672499 0.231763 0.672499
v 0.363954 0.231763 0.878662
v -0.000000 0.231763 0.951057
v -0.363954 0.231763 0.878662
v -0.672499 0.231763 0.672499
v -0.878662 0.231763 0.363954
v -0.951057 0.231763 -0.000000
v -0.878662 0.231763 -0.363954
v -0.672499 0.231763 -0.672498
v -0.363954 0.231763 -0.878662
v 0.000000 0.231763 -0.951057
v 0.363954 0.231763 -0.878662
v 0.672498 0.231763 -0.672499
v 0.878662 0.231763 -0.363954
v 1.000000 -0.000000 0.000000
v 0.923880 -0.000000 0.382683
v 0.707107 -0.000000 0.707107
v 0.382683 -0.000000 0.923880
v -0.000000 -0.000000 1.000000
v -0.382683 -0.000000 0.923880
v -0.707107 -0.000000 0.707107
v -0.923880 -0.000000 0.382683
v -1.000000 -0.000000 -0.000000
v -0.923880 -0.000000 -0.382683
v -0.707107 -0.000000 -0.707107
v -0.382684 -0.000000 -0.923880
v 0.000000 -0.000000 -1.000000
v 0.382684 -0.000000 -0.923879
v 0.707107 -0.000000 -0.707107
v 0.923880 -0.000000 -0.382683
v 0.951056 -0.231763 0.000000
v 0.878662 -0.231763 0.363954
v 0.672498 -0.231763 0.672498
v 0.363954 -0.231763 0.878662
v -0.000000 -0.231763 0.951056
v -0.363954 -0.231763 0.878662
v -0.672498 -0.231763 0.672498
v -0.878662 -0.231763 0.363954
v -0.951056 -0.231763 -0.000000
v -0.878662 -0.231763 -0.363954
v -0.672499 -0.231763 -0.672498
v -0.363954 -0.231763 -0.878662
v 0.000000 -0.231763 -0.951056
v 0.363954 -0.231763 -0.878662
v 0.672498 -0.231763 -0.672499
v 0.878662 -0.231763 -0.363954
v 0.809017 -0.440839 0.000000
v 0.747434 -0.440839 0.309597
v 0.572061 -0.440839 0.572061
v 0.309597 -0.440839 0.747434
v -0.000000 -0.440839 0.809017
v -0.309597 -0.440839 0.747434
v -0.572061 -0.440839 0.572061
v -0.747434 -0.440839 0.309597
v -0.809017 -0.440839 -0.000000
v -0.747434 -0.440839 -0.309597
v -0.572061 -0.440839 -0.572061
v -0.309598 -0.440839 -0.747434
v 0.000000 -0.440839 -0.809017
v 0.309598 -0.440839 -0.747434
v 0.572061 -0.440839 -0.572061
v 0.747434 -0.440839 -0.309597
v 0.587785 -0.606763 0.000000
v 0.543043 -0.606763 0.224936
v 0.415627 -0.606763 0.415627
v 0.224936 -0.606763 0.543043
v -0.000000 -0.606763 0.587785
v -0.224936 -0.606763 0.543043
v -0.415627 -0.606763 0.415627
v -0.543043 -0.606763 0.224936
v -0.587785 -0.606763 -0.000000
v -0.543043 -0.606763 -0.224936
v -0.415627 -0.606763 -0.415627
v -0.224936 -0.606763 -0.543043
v 0.000000 -0.606763 -0.587785
v 0.224936 -0.606763 -0.543043
v 0.415627 -0.606763 -0.415627
v 0.543043 -0.606763 -0.224936
v 0.309017 -0.713292 0.000000
v 0.285495 -0.713292 0.118256
v 0.218508 -0.713292 0.218508
v 0.118256 -0.713292 0.285495
v -0.000000 -0.713292 0.309017
v -0.118256 -0.713292 0.285495
v -0.218508 -0.713292 0.218508
v -0.285495 -0.713292 0.118256
v -0.309017 -0.713292 -0.000000
v -0.285495 -0.713292 -0.118256
v -0.218508 -0.713292 -0.218508
v -0.118256 -0.713292 -0.285495
v 0.000000 -0.713292 -0.309017
v 0.118256 -0.713292 -0.285494
v 0.218508 -0.713292 -0.218508
v 0.285495 -0.713292 -0.118256
v 0.000000 -0.750000 0.000000
v 0.000000 0.950000 0.000000
v 0.300000 0.923205 0.000000
v 0.277164 0.923205 0.114805
v 0.212132 0.923205 0.212132
v 0.114805 0.923205 0.277164
v -0.000000 0.923205 0.300000
v -0.114805 0.923205 0.277164
v -0.212132 0.923205 0.212132
v -0.277164 0.923205 0.114805
v -0.300000 0.923205 -0.000000
v -0.277164 0.923205 -0.114805
v -0.212132 0.923205 -0.212132
v -0.114805 0.923205 -0.277164
v 0.000000 0.923205 -0.300000
v 0.114805 0.923205 -0.277164
v 0.212132 0.923205 -0.212132
v 0.277164 0.923205 -0.114805
v 0.519615 0.850000 0.000000
v 0.480062 0.850000 0.198848
v 0.367424 0.850000 0.367424
v 0.198848 0.850000 0.480062
v -0.000000 0.850000 0.519615
v -0.198848 0.850000 0.480062
v -0.367424 0.850000 0.367424
v -0.480062 0.850000 0.198848
v -0.519615 0.850000 -0.000000
v -0.480062 0.850000 -0.198848
v -0.367424 0.850000 -0.367423
v -0.198848 0.850000 -0.480062
v 0.000000 0.850000 -0.519615
v 0.198848 0.850000 -0.480062
v 0.367423 0.850000 -0.367424
v 0.480062 0.850000 -0.198848
v 0.600000 0.750000 0.000000
v 0.554328 0.750000 0.229610
v 0.424264 0.750000 0.424264
v 0.229610 0.750000 0.554328
v -0.000000 0.750000 0.600000
v -0.229610 0.750000 0.554328
v -0.424264 0.750000 0.424264
v -0.554328 0.750000 0.229610
v -0.600000 0.750000 -0.000000
v -0.554328 0.750000 -0.229610
v -0.424264 0.750000 -0.424264
v -0.229610 0.750000 -0.554328
v 0.000000 0.750000 -0.600000
v 0.229610 0.750000 -0.554328
v 0.424264 0.750000 -0.424264
v 0.554328 0.750000 -0.229610
v 0.519615 0.650000 0.000000
v 0.480062 0.650000 0.198848
v 0.367423 0.650000 0.367423
v 0.198848 0.650000 0.480062
v -0.000000 0.650000 0.519615
v -0.198848 0.650000 0.480062
v -0.367423 0.650000 0.367423
v -0.480062 0.650000 0.198848
v -0.519615 0.650000 -0.000000
v -0.480062 0.650000 -0.198848
v -0.367423 0.650000 -0.367423
v -0.198848 0.650000 -0.480062
v 0.000000 0.650000 -0.519615
v 0.198848 0.650000 -0.480062
v 0.367423 0.650000 -0.367424
v 0.480062 0.650000 -0.198848
v 0.300000 0.576795 0.000000
v 0.277164 0.576795 0.114805
v 0.212132 0.576795 0.212132
v 0.114805 0.576795 0.277164
v -0.000000 0.576795 0.300000
v -0.114805 0.576795 0.277164
v -0.212132 0.576795 0.212132
v -0.277164 0.576795 0.114805
v -0.300000 0.576795 -0.000000
v -0.277164 0.576795 -0.114805
v -0.212132 0.576795 -0.212132
v -0.114805 0.576795 -0.277164
v 0.000000 0.576795 -0.300000
v 0.114805 0.576795 -0.277164
v 0.212132 0.576795 -0.212132
v 0.277164 0.576795 -0.114805
v 0.000000 0.550000 0.000000
v 0.000000 1.150000 0.000000
v 0.106066 1.106066 0.000000
v 0.075000 1.106066 0.075000
v -0.000000 1.106066 0.106066
v -0.075000 1.106066 0.075000
v -0.106066 1.106066 -0.000000
v -0.075000 1.106066 -0.075000
v 0.000000 1.106066 -0.106066
v 0.075000 1.106066 -0.075000
v 0.150000 1.000000 0.000000
v 0.106066 1.000000 0.106066
v -0.000000 1.000000 0.150000
v -0.106066 1.000000 0.106066
v -0.150000 1.000000 -0.000000
v -0.106066 1.000000 -0.106066
v 0.000000 1.000000 -0.150000
v 0.106066 1.000000 -0.106066
v 0.106066 0.893934 0.000000
v 0.075000 0.893934 0.075000
v -0.000000 0.893934 0.106066
v -0.075000 0.893934 0.075000
v -0.106066 0.893934 -0.000000
v -0.075000 0.893934 -0.075000
v 0.000000 0.893934 -0.106066
v 0.075000 0.893934 -0.075000
v 0.000000 0.850000 0.000000
v 1.100000 0.350000 0.000000
v 1.350000 0.316506 0.000000
v 1.276777 0.316506 0.088388
v 1.100000 0.316506 0.125000
v 0.923223 0.316506 0.088388
v 0.850000 0.316506 -0.000000
v 0.923223 0.316506 -0.088388
v 1.100000 0.316506 -0.125000
v 1.276777 0.316506 -0.088388
v 1.533013 0.225000 0.000000
v 1.406186 0.225000 0.153093
v 1.100000 0.225000 0.216506
v 0.793814 0.225000 0.153093
v 0.666987 0.225000 -0.000000
v 0.793814 0.225000 -0.153093
v 1.100000 0.225000 -0.216506
v 1.406186 0.225000 -0.153093
v 1.600000 0.100000 0.000000
v 1.453553 0.100000 0.176777
v 1.100000 0.100000 0.250000
v 0.746447 0.100000 0.176777
v 0.600000 0.100000 -0.000000
v 0.746447 0.100000 -0.176777
v 1.100000 0.100000 -0.250000
v 1.453553 0.100000 -0.176777
v 1.533013 -0.025000 0.000000
v 1.406186 -0.025000 0.153093
v 1.100000 -0.025000 0.216506
v 0.793814 -0.025000 0.153093
v 0.666987 -0.025000 -0.000000
v 0.793814 -0.025000 -0.153093
v 1.100000 -0.025000 -0.216506
v 1.406186 -0.025000 -0.153093
v 1.350000 -0.116506 0.000000
v 1.276777 -0.116506 0.088388
v 1.100000 -0.116506 0.125000
v 0.923223 -0.116506 0.088388
v 0.850000 -0.116506 -0.000000
v 0.923223 -0.116506 -0.088388
v 1.100000 -0.116506 -0.125000
v 1.276777 -0.116506 -0.088388
v 1.100000 -0.150000 0.000000
v -1.123607 -0.165317 0.000000
v -1.038754 -0.200464 0.000000
v -1.081180 -0.200464 0.073485
v -1.166033 -0.200464 0.073485
v -1.208460 -0.200464 -0.000000
v -1.166033 -0.200464 -0.073485
v -1.081180 -0.200464 -0.073485
v -1.003607 -0.285317 0.000000
v -1.063607 -0.285317 0.103923
v -1.183607 -0.285317 0.103923
v -1.243607 -0.285317 -0.000000
v -1.183607 -0.285317 -0.103923
v -1.063607 -0.285317 -0.103923
v -1.038754 -0.370170 0.000000
v -1.081180 -0.370170 0.073485
v -1.166033 -0.370170 0.073485
v -1.208460 -0.370170 -0.000000
v -1.166033 -0.370170 -0.073485
v -1.081180 -0.370170 -0.073485
v -1.123607 -0.405317 0.000000
v -1.291587 -0.085364 0.000000
v -1.206735 -0.120511 0.000000
v -1.249161 -0.120511 0.073485
v -1.334014 -0.120511 0.073485
v -1.376440 -0.120511 -0.000000
v -1.334014 -0.120511 -0.073485
v -1.249161 -0.120511 -0.073485
v -1.171587 -0.205364 0.000000
v -1.231588 -0.205364 0.103923
v -1.351588 -0.205364 0.103923
v -1.411587 -0.205364 -0.000000
v -1.351587 -0.205364 -0.103923
v -1.231588 -0.205364 -0.103923
v -1.206735 -0.290217 0.000000
v -1.249161 -0.290217 0.073485
v -1.334014 -0.290217 0.073485
v -1.376440 -0.290217 -0.000000
v -1.334014 -0.290217 -0.073485
v -1.249161 -0.290217 -0.073485
v -1.291587 -0.325364 0.000000
v -1.387433 0.045393 0.000000
v -1.302580 0.010246 0.000000
v -1.345007 0.010246 0.073485
v -1.429860 0.010246 0.073485
v -1.472286 0.010246 -0.000000
v -1.429860 0.010246 -0.073485
v -1.345007 0.010246 -0.073485
v -1.267433 -0.074607 0.000000
v -1.327433 -0.074607 0.103923
v -1.447433 -0.074607 0.103923
v -1.507433 -0.074607 -0.000000
v -1.447433 -0.074607 -0.103923
v -1.327433 -0.074607 -0.103923
v -1.302580 -0.159460 0.000000
v -1.345007 -0.159460 0.073485
v -1.429860 -0.159460 0.073485
v -1.472286 -0.159460 -0.000000
v -1.429860 -0.159460 -0.073485
v -1.345007 -0.159460 -0.073485
v -1.387433 -0.194607 0.000000
v -1.387433 0.194607 0.000000
v -1.302580 0.159460 0.000000
v -1.345007 0.159460 0.073485
v -1.429860 0.159460 0.073485
v -1.472286 0.159460 -0.000000
v -1.429860 0.159460 -0.073485
v -1.345007 0.159460 -0.073485
v -1.267433 0.074607 0.000000
v -1.327433 0.074607 0.103923
v -1.447433 0.074607 0.103923
v -1.507433 0.074607 -0.000000
v -1.447433 0.074607 -0.103923
v -1.327433 0.074607 -0.103923
v -1.302580 -0.010246 0.000000
v -1.345007 -0.010246 0.073485
v -1.429860 -0.010246 0.073485
v -1.472286 -0.010246 -0.000000
v -1.429860 -0.010246 -0.073485
v -1.345007 -0.010246 -0.073485
v -1.387433 -0.045393 0.000000
v -1.291587 0.325364 0.000000
v -1.206735 0.290217 0.000000
v -1.249161 0.290217 0.073485
v -1.334014 0.290217 0.073485
v -1.376440 0.290217 -0.000000
v -1.334014 0.290217 -0.073485
v -1.249161 0.290217 -0.073485
v -1.171587 0.205364 0.000000
v -1.231588 0.205364 0.103923
v -1.351588 0.205364 0.103923
v -1.411587 0.205364 -0.000000
v -1.351587 0.205364 -0.103923
v -1.231588 0.205364 -0.103923
v -1.206735 0.120511 0.000000
v -1.249161 0.120511 0.073485
v -1.334014 0.120511 0.073485
v -1.376440 0.120511 -0.000000
v -1.334014 0.120511 -0.073485
v -1.249161 0.120511 -0.073485
v -1.291587 0.085364 0.000000
v -1.123607 0.405317 0.000000
v -1.038754 0.370170 0.000000
v -1.081180 0.370170 0.073485
v -1.166033 0.370170 0.073485
v -1.208460 0.370170 -0.000000
v -1.166033 0.370170 -0.073485
v -1.081180 0.370170 -0.073485
v -1.003607 0.285317 0.000000
v -1.063607 0.285317 0.103923
v -1.183607 0.285317 0.103923
v -1.243607 0.285317 -0.000000
v -1.183607 0.285317 -0.103923
v -1.063607 0.285317 -0.103923
v -1.038754 0.200464 0.000000
v -1.081180 0.200464 0.073485
v -1.166033 0.200464 0.073485
v -1.208460 0.200464 -0.000000
v -1.166033 0.200464 -0.073485
v -1.081180 0.200464 -0.073485
v -1.123607 0.165317 0.000000
f 1 2 3
f 1 3 4
f 1 4 5
f 1 5 6
f 1 6 7
f 1 7 8
f 1 8 9
f 1 9 10
f 1 10 11
f 1 11 12
f 1 12 13
f 1 13 14
f 1 14 15
f 1 15 16
f 1 16 17
f 1 17 2
f 2 18 19
f 2 19 3
f 3 19 20
f 3 20 4
f 4 20 21
f 4 21 5
f 5 21 22
f 5 22 6
f 6 22 23
f 6 23 7
f 7 23 24
f 7 24 8
f 8 24 25
f 8 25 9
f 9 25 26
f 9 26 10
f 10 26 27
f 10 27 11
f 11 27 28
f 11 28 12
f 12 28 29
f 12 29 13
f 13 29 30
f 13 30 14
f 14 30 31
f 14 31 15
f 15 31 32
f 15 32 16
f 16 32 33
f 16 33 17
f 17 33 18
f 17 18 2
f 18 34 35
f 18 35 19
f 19 35 36
f 19 36 20
f 20 36 37
f 20 37 21
f 21 37 38
f 21 38 22
f 22 38 39
f 22 39 23
f 23 39 40
f 23 40 24
f 24 40 41
f 24 41 25
f 25 41 42
f 25 42 26
f 26 42 43
f 26 43 27
f 27 43 44
f 27 44 28
f 28 44 45
f 28 45 29
f 29 45 46
f 29 46 30
f 30 46 47
f 30 47 31
f 31 47 48
f 31 48 32
f 32 48 49
f 32 49 33
f 33 49 34
f 33 34 18
f 34 50 51
f 34 51 35
f 35 51 52
f 35 52 36
f 36 52 53
f 36 53 37
f 37 53 54
f 37 54 38
f 38 54 55
f 38 55 39
f 39 55 56
f 39 56 40
f 40 56 57
f 40 57 41
f 41 57 58
f 41 58 42
f 42 58 59
f 42 59 43
f 43 59 60
f 43 60 44
f 44 60 61
f 44 61 45
f 45 61 62
f 45 62 46
f 46 62 63
f 46 63 47
f 47 63 64
f 47 64 48
f 48 64 65
f 48 65 49
f 49 65 50
f 49 50 34
f 50 66 67
f 50 67 51
f 51 67 68
f 51 68 52
f 52 68 69
f 52 69 53
f 53 69 70
f 53 70 54
f 54 70 71
f 54 71 55
f 55 71 72
f 55 72 56
f 56 72 73
f 56 73 57
f 57 73 74
f 57 74 58
f 58 74 75
f 58 75 59
f 59 75 76
f 59 76 60
f 60 76 77
f 60 77 61
f 61 77 78
f 61 78 62
f 62 78 79
f 62 79 63
f 63 79 80
f 63 80 64
f 64 80 81
f 64 81 65
f 65 81 66
f 65 66 50
f 66 82 83
f 66 83 67
f 67 83 84
f 67 84 68
f 68 84 85
f 68 85 69
f 69 85 86
f 69 86 70
f 70 86 87
f 70 87 71
f 71 87 88
f 71 88 72
f 72 88 89
f 72 89 73
f 73 89 90
f 73 90 74
f 74 90 91
f 74 91 75
f 75 91 92
f 75 92 76
f 76 92 93
f 76 93 77
f 77 93 94
f 77 94 78
f 78 94 95
f 78 95 79
f 79 95 96
f 79 96 80
f 80 96 97
f 80 97 81
f 81 97 82
f 81 82 66
f 82 98 99
f 82 99 83
f 83 99 100
f 83 100 84
f 84 100 101
f 84 101 85
f 85 101 102
f 85 102 86
f 86 102 103
f 86 103 87
f 87 103 104
f 87 104 88
f 88 104 105
f 88 105 89
f 89 105 106
f 89 106 90
f 90 106 107
f 90 107 91
f 91 107 108
f 91 108 92
f 92 108 109
f 92 109 93
f 93 109 110
f 93 110 94
f 94 110 111
f 94 111 95
f 95 111 112
f 95 112 96
f 96 112 113
f 96 113 97
f 97 113 98
f 97 98 82
f 98 114 115
f 98 115 99
f 99 115 116
f 99 116 100
f 100 116 117
f 100 117 101
f 101 117 118
f 101 118 102
f 102 118 119
f 102 119 103
f 103 119 120
f 103 120 104
f 104 120 121
f 104 121 105
f 105 121 122
f 105 122 106
f 106 122 123
f 106 123 107
f 107 123 124
f 107 124 108
f 108 124 125
f 108 125 109
f 109 125 126
f 109 126 110
f 110 126 127
f 110 127 111
f 111 127 128
f 111 128 112
f 112 128 129
f 112 129 113
f 113 129 114
f 113 114 98
f 114 130 131
f 114 131 115
f 115 131 132
f 115 132 116
f 116 132 133
f 116 133 117
f 117 133 134
f 117 134 118
f 118 134 135
f 118 135 119
f 119 135 136
f 119 136 120
f 120 136 137
f 120 137 121
f 121 137 138
f 121 138 122
f 122 138 139
f 122 139 123
f 123 139 140
f 123 140 124
f 124 140 141
f 124 141 125
f 125 141 142
f 125 142 126
f 126 142 143
f 126 143 127
f 127 143 144
f 127 144 128
f 128 144 145
f 128 145 129
f 129 145 130
f 129 130 114
f 146 131 130
f 146 132 131
f 146 133 132
f 146 134 133
f 146 135 134
f 146 136 135
f 146 137 136
f 146 138 137
f 146 139 138
f 146 140 139
f 146 141 140
f 146 142 141
f 146 143 142
f 146 144 143
f 146 145 144
f 146 130 145
f 147 148 149
f 147 149 150
f 147 150 151
f 147 151 152
f 147 152 153
f 147 153 154
f 147 154 155
f 147 155 156
f 147 156 157
f 147 157 158
f 147 158 159
f 147 159 160
f 147 160 161
f 147 161 162
f 147 162 163
f 147 163 148
f 148 164 165
f 148 165 149
f 149 165 166
f 149 166 150
f 150 166 167
f 150 167 151
f 151 167 168
f 151 168 152
f 152 168 169
f 152 169 153
f 153 169 170
f 153 170 154
f 154 170 171
f 154 171 155
f 155 171 172
f 155 172 156
f 156 172 173
f 156 173 157
f 157 173 174
f 157 174 158
f 158 174 175
f 158 175 159
f 159 175 176
f 159 176 160
f 160 176 177
f 160 177 161
f 161 177 178
f 161 178 162
f 162 178 179
f 162 179 163
f 163 179 164
f 163 164 148
f 164 180 181
f 164 181 165
f 165 181 182
f 165 182 166
f 166 182 183
f 166 183 167
f 167 183 184
f 167 184 168
f 168 184 185
f 168 185 169
f 169 185 186
f 169 186 170
f 170 186 187
f 170 187 171
f 171 187 188
f 171 188 172
f 172 188 189
f 172 189 173
f 173 189 190
f 173 190 174
f 174 190 191
f 174 191 175
f 175 191 192
f 175 192 176
f 176 192 193
f 176 193 177
f 177 193 194
f 177 194 178
f 178 194 195
f 178 195 179
f 179 195 180
f 179 180 164
f 180 196 197
f 180 197 181
f 181 197 198
f 181 198 182
f 182 198 199
f 182 199 183
f 183 199 200
f 183 200 184
f 184 200 201
f 184 201 185
f 185 201 202
f 185 202 186
f 186 202 203
f 186 203 187
f 187 203 204
f 187 204 188
f 188 204 205
f 188 205 189
f 189 205 206
f 189 206 190
f 190 206 207
f 190 207 191
f 191 207 208
f 191 208 192
f 192 208 209
f 192 209 193
f 193 209 210
f 193 210 194
f 194 210 211
f 194 211 195
f 195 211 196
f 195 196 180
f 196 212 213
f 196 213 197
f 197 213 214
f 197 214 198
f 198 214 215
f 198 215 199
f 199 215 216
f 199 216 200
f 200 216 217
f 200 217 201
f 201 217 218
f 201 218 202
f 202 218 219
f 202 219 203
f 203 219 220
f 203 220 204
f 204 220 221
f 204 221 205
f 205 221 222
f 205 222 206
f 206 222 223
f 206 223 207
f 207 223 224
f 207 224 208
f 208 224 225
f 208 225 209
f 209 225 226
f 209 226 210
f 210 226 227
f 210 227 211
f 211 227 212
f 211 212 196
f 228 213 212
f 228 214 213
f 228 215 214
f 228 216 215
f 228 217 216
f 228 218 217
f 228 219 218
f 228 220 219
f 228 221 220
f 228 222 221
f 228 223 222
f 228 224 223
f 228 225 224
f 228 226 225
f 228 227 226
f 228 212 227
f 229 230 231
f 229 231 232
f 229 232 233
f 229 233 234
f 229 234 235
f 229 235 236
f 229 236 237
f 229 237 230
f 230 238 239
f 230 239 231
f 231 239 240
f 231 240 232
f 232 240 241
f 232 241 233
f 233 241 242
f 233 242 234
f 234 242 243
f 234 243 235
f 235 243 244
f 235 244 236
f 236 244 245
f 236 245 237
f 237 245 238
f 237 238 230
f 238 246 247
f 238 247 239
f 239 247 248
f 239 248 240
f 240 248 249
f 240 249 241
f 241 249 250
f 241 250 242
f 242 250 251
f 242 251 243
f 243 251 252
f 243 252 244
f 244 252 253
f 244 253 245
f 245 253 246
f 245 246 238
f 254 247 246
f 254 248 247
f 254 249 248
f 254 250 249
f 254 251 250
f 254 252 251
f 254 253 252
f 254 246 253
f 255 256 257
f 255 257 258
f 255 258 259
f 255 259 260
f 255 260 261
f 255 261 262
f 255 262 263
f 255 263 256
f 256 264 265
f 256 265 257
f 257 265 266
f 257 266 258
f 258 266 267
f 258 267 259
f 259 267 268
f 259 268 260
f 260 268 269
f 260 269 261
f 261 269 270
f 261 270 262
f 262 270 271
f 262 271 263
f 263 271 264
f 263 264 256
f 264 272 273
f 264 273 265
f 265 273 274
f 265 274 266
f 266 274 275
f 266 275 267
f 267 275 276
f 267 276 268
f 268 276 277
f 268 277 269
f 269 277 278
f 269 278 270
f 270 278 279
f 270 279 271
f 271 279 272
f 271 272 264
f 272 280 281
f 272 281 273
f 273 281 282
f 273 282 274
f 274 282 283
f 274 283 275
f 275 283 284
f 275 284 276
f 276 284 285
f 276 285 277
f 277 285 286
f 277 286 278
f 278 286 287
f 278 287 279
f 279 287 280
f 279 280 272
f 280 288 289
f 280 289 281
f 281 289 290
f 281 290 282
f 282 290 291
f 282 291 283
f 283 291 292
f 283 292 284
f 284 292 293
f 284 293 285
f 285 293 294
f 285 294 286
f 286 294 295
f 286 295 287
f 287 295 288
f 287 288 280
f 296 289 288
f 296 290 289
f 296 291 290
f 296 292 291
f 296 293 292
f 296 294 293
f 296 295 294
f 296 288 295
f 297 298 299
f 297 299 300
f 297 300 301
f 297 301 302
f 297 302 303
f 297 303 298
f 298 304 305
f 298 305 299
f 299 305 306
f 299 306 300
f 300 306 307
f 300 307 301
f 301 307 308
f 301 308 302
f 302 308 309
f 302 309 303
f 303 309 304
f 303 304 298
f 304 310 311
f 304 311 305
f 305 311 312
f 305 312 306
f 306 312 313
f 306 313 307
f 307 313 314
f 307 314 308
f 308 314 315
f 308 315 309
f 309 315 310
f 309 310 304
f 316 311 310
f 316 312 311
f 316 313 312
f 316 314 313
f 316 315 314
f 316 310 315
f 317 318 319
f 317 319 320
f 317 320 321
f 317 321 322
f 317 322 323
f 317 323 318
f 318 324 325
f 318 325 319
f 319 325 326
f 319 326 320
f 320 326 327
f 320 327 321
f 321 327 328
f 321 328 322
f 322 328 329
f 322 329 323
f 323 329 324
f 323 324 318
f 324 330 331
f 324 331 325
f 325 331 332
f 325 332 326
f 326 332 333
f 326 333 327
f 327 333 334
f 327 334 328
f 328 334 335
f 328 335 329
f 329 335 330
f 329 330 324
f 336 331 330
f 336 332 331
f 336 333 332
f 336 334 333
f 336 335 334
f 336 330 335
f 337 338 339
f 337 339 340
f 337 340 341
f 337 341 342
f 337 342 343
f 337 343 338
f 338 344 345
f 338 345 339
f 339 345 346
f 339 346 340
f 340 346 347
f 340 347 341
f 341 347 348
f 341 348 342
f 342 348 349
f 342 349 343
f 343 349 344
f 343 344 338
f 344 350 351
f 344 351 345
f 345 351 352
f 345 352 346
f 346 352 353
f 346 353 347
f 347 353 354
f 347 354 348
f 348 354 355
f 348 355 349
f 349 355 350
f 349 350 344
f 356 351 350
f 356 352 351
f 356 353 352
f 356 354 353
f 356 355 354
f 356 350 355
f 357 358 359
f 357 359 360
f 357 360 361
f 357 361 362
f 357 362 363
f 357 363 358
f 358 364 365
f 358 365 359
f 359 365 366
f 359 366 360
f 360 366 367
f 360 367 361
f 361 367 368
f 361 368 362
f 362 368 369
f 362 369 363
f 363 369 364
f 363 364 358
f 364 370 371
f 364 371 365
f 365 371 372
f 365 372 366
f 366 372 373
f 366 373 367
f 367 373 374
f 367 374 368
f 368 374 375
f 368 375 369
f 369 375 370
f 369 370 364
f 376 371 370
f 376 372 371
f 376 373 372
f 376 374 373
f 376 375 374
f 376 370 375
f 377 378 379
f 377 379 380
f 377 380 381
f 377 381 382
f 377 382 383
f 377 383 378
f 378 384 385
f 378 385 379
f 379 385 386
f 379 386 380
f 380 386 387
f 380 387 381
f 381 387 388
f 381 388 382
f 382 388 389
f 382 389 383
f 383 389 384
f 383 384 378
f 384 390 391
f 384 391 385
f 385 391 392
f 385 392 386
f 386 392 393
f 386 393 387
f 387 393 394
f 387 394 388
f 388 394 395
f 388 395 389
f 389 395 390
f 389 390 384
f 396 391 390
f 396 392 391
f 396 393 392
f 396 394 393
f 396 395 394
f 396 390 395
f 397 398 399
f 397 399 400
f 397 400 401
f 397 401 402
f 397 402 403
f 397 403 398
f 398 404 405
f 398 405 399
f 399 405 406
f 399 406 400
f 400 406 407
f 400 407 401
f 401 407 408
f 401 408 402
f 402 408 409
f 402 409 403
f 403 409 404
f 403 404 398
f 404 410 411
f 404 411 405
f 405 411 412
f 405 412 406
f 406 412 413
f 406 413 407
f 407 413 414
f 407 414 408
f 408 414 415
f 408 415 409
f 409 415 410
f 409 410 404
f 416 411 410
f 416 412 411
f 416 413 412
f 416 414 413
f 416 415 414
f 416 410 415
